<svg xmlns="http://www.w3.org/2000/svg" xmlns:xlink="http://www.w3.org/1999/xlink" version="1.1" x="0px" y="0px" viewBox="0 0 32 40" style="enable-background:new 0 0 32 32;" xml:space="preserve"><path d="M21.4,14H2.6C2.3,14,2,14.3,2,14.6v2.8C2,17.7,2.3,18,2.6,18h18.8c0.3,0,0.6-0.3,0.6-0.6v-2.8C22,14.3,21.7,14,21.4,14z"/><path d="M29.4,14h-2.8c-0.3,0-0.6,0.3-0.6,0.6v2.8c0,0.3,0.3,0.6,0.6,0.6h2.8c0.3,0,0.6-0.3,0.6-0.6v-2.8C30,14.3,29.7,14,29.4,14z"/><path d="M21.4,22H2.6C2.3,22,2,22.3,2,22.6v2.8C2,25.7,2.3,26,2.6,26h18.8c0.3,0,0.6-0.3,0.6-0.6v-2.8C22,22.3,21.7,22,21.4,22z"/><path d="M29.4,22h-2.8c-0.3,0-0.6,0.3-0.6,0.6v2.8c0,0.3,0.3,0.6,0.6,0.6h2.8c0.3,0,0.6-0.3,0.6-0.6v-2.8C30,22.3,29.7,22,29.4,22z"/><path d="M21.4,6H2.6C2.3,6,2,6.3,2,6.6v2.8C2,9.7,2.3,10,2.6,10h18.8c0.3,0,0.6-0.3,0.6-0.6V6.6C22,6.3,21.7,6,21.4,6z"/><path d="M29.4,6h-2.8C26.3,6,26,6.3,26,6.6v2.8c0,0.3,0.3,0.6,0.6,0.6h2.8c0.3,0,0.6-0.3,0.6-0.6V6.6C30,6.3,29.7,6,29.4,6z"/><text x="0" y="47" fill="#000000" font-size="5px" font-weight="bold" font-family="'Helvetica Neue', Helvetica, Arial-Unicode, Arial, Sans-serif">Created by pertiwi putri</text><text x="0" y="52" fill="#000000" font-size="5px" font-weight="bold" font-family="'Helvetica Neue', Helvetica, Arial-Unicode, Arial, Sans-serif">from the Noun Project</text></svg>